<mxfile host="app.diagrams.net" modified="2024-04-18T07:10:35.326Z" agent="Mozilla/5.0 (Macintosh; Intel Mac OS X 10_15_7) AppleWebKit/537.36 (KHTML, like Gecko) Chrome/121.0.0.0 Safari/537.36" version="24.2.5" etag="6G2Il22ng0VD20lWSO33" type="github">
  <diagram name="Page-1" id="NjYZKe9NlJBqQ45f2Vna">
    <mxGraphModel>
      <root>
        <mxCell id="0" />
        <mxCell id="1" parent="0" />
      </root>
    </mxGraphModel>
  </diagram>
</mxfile>
